PathFileType	4	(X/Y/Z)	Walk4.trc
DataRate	CameraRate	NumFrames	NumMarkers	Units	OrigDataRate	OrigDataStartFrame	OrigNumFrames
200.000000	200.000000	4	59	mm	200.000000	411	583
Frame#	Times		LFHD		RFHD		CLAV		STRN		LASI		RASI		RACR1		RUA1		RElbow		RFA1		RWRR		RWRU		RCAR		LACR1		LUA1		LElbow		LFA1		LWRR		LWRU		LCAR		RTH3		RTH2		RTB1		RTB2		LTH1		LTH3		LTH2		LLFC		LMFC		LTB1		LTB3		LTB2		LTB4		LMT1		LToe		LMT5		RTB4		RTB3		RMFC		LTH4		RTH4		RMT1		RElbowM		RLFC		LBHD		RToe		RMMAL		RTH1		RCAL		RBack		LLMAL		RPSI		C7		LElbowM		T10		LPSI		LMMAL		RBHD		LCAL
			X1	Y1	Z1	X2	Y2	Z2	X3	Y3	Z3	X4	Y4	Z4	X5	Y5	Z5	X6	Y6	Z6	X7	Y7	Z7	X8	Y8	Z8	X9	Y9	Z9	X10	Y10	Z10	X11	Y11	Z11	X12	Y12	Z12	X13	Y13	Z13	X14	Y14	Z14	X15	Y15	Z15	X16	Y16	Z16	X17	Y17	Z17	X18	Y18	Z18	X19	Y19	Z19	X20	Y20	Z20	X21	Y21	Z21	X22	Y22	Z22	X23	Y23	Z23	X24	Y24	Z24	X25	Y25	Z25	X26	Y26	Z26	X27	Y27	Z27	X28	Y28	Z28	X29	Y29	Z29	X30	Y30	Z30	X31	Y31	Z31	X32	Y32	Z32	X33	Y33	Z33	X34	Y34	Z34	X35	Y35	Z35	X36	Y36	Z36	X37	Y37	Z37	X38	Y38	Z38	X39	Y39	Z39	X40	Y40	Z40	X41	Y41	Z41	X42	Y42	Z42	X43	Y43	Z43	X44	Y44	Z44	X45	Y45	Z45	X46	Y46	Z46	X47	Y47	Z47	X48	Y48	Z48	X49	Y49	Z49	X50	Y50	Z50	X51	Y51	Z51	X52	Y52	Z52	X53	Y53	Z53	X54	Y54	Z54	X55	Y55	Z55	X56	Y56	Z56	X57	Y57	Z57	X58	Y58	Z58	X59	Y59	Z59

411	2.055	484.87	1673.2	-9.1635	486.19	1673.4	90.105	494.38	1413.9	43.133	562.89	1256.8	31.582	430.42	1005.1	-152.66	480.38	993.58	214.13	383.84	1489.9	219.52	359.06	1319.9	333.47	367.94	1170.4	379.81	400.87	1020	391.53	421.23	902.89	320.2	417.18	907.36	401.81	448.35	822.39	367.4	367.86	1478.9	-133.78	334.54	1308.5	-224.85	327.91	1147.5	-282.26	363.04	1012.7	-303.88	432.7	893.63	-256.57	384.06	873.99	-310.18	449.01	809.42	-294.74	446.01	612.98	206.14	480.6	712.1	208.18	497.88	379.44	107.4	466.1	290.94	155.58	410.36	773.66	-187.71	450.86	606.57	-190.3	486.08	703.87	-172.71	435.66	528.88	-190.09	472.73	509.98	-36.275	446.2	393.16	-132.91	334.13	269.36	-92.135	360.81	342.16	-162.87	394.29	330.39	-111.43	264.56	63.488	-81.305	299	46.641	-127.37	205.01	91.62	-144.69	479.12	295.09	95.711	461.84	211.81	83.95	430.22	506.29	38.515	429.74	691.31	-190.15	425.87	694.73	222.61	530.8	25.962	49.967	312.71	1101.1	283.55	447.52	496.7	193.31	336.43	1591.7	-18.908	578	30.51	81.648	402.21	84.049	22.31	404.25	776.98	239.89	308.7	48.74	62.845	240.51	1369.9	164.25	166.52	196.82	-81.558	202.35	1035.9	90.608	299.26	1490.2	50.854	278.75	1082.3	-185.98	242.65	1173.6	50.885	204.34	1039.4	5.9165	203.49	186.73	-0.17959	353.5	1597.8	129.13	117.27	200.33	-17.251
412	2.06	490.69	1674	-8.8397	491.96	1674.3	90.419	499.95	1414.9	43.374	568.48	1257.7	31.821	436.71	1005.9	-152.06	485.74	995.12	214.29	389.24	1490.9	219.71	364.76	1320.9	333.81	374.41	1171.5	380.42	408.35	1021.4	392.24	429.65	904.39	320.98	425.47	908.88	402.6	457.2	824.06	368.29	373.54	1479.8	-133.61	339.29	1309.5	-224.55	331.37	1148.5	-281.8	365.25	1013.4	-303.45	433.96	893.7	-256.19	385.02	874.52	-309.73	449.05	809.04	-294.2	448.08	613.07	206.36	483.64	711.83	208.4	498.47	379.25	107.62	466.41	290.8	155.75	418.16	774.96	-187.18	460.26	608.23	-189.35	494.54	705.85	-171.95	445.81	530.4	-189.03	482.58	511.99	-35.272	458.51	394.8	-132.05	348.84	268.73	-91.696	374.17	342.19	-162.23	407.86	331	-110.79	284.32	62.082	-81.482	319.25	46.149	-127.41	224.06	88.788	-144.9	479.54	294.93	95.897	462.08	211.7	84.108	431.07	506.42	38.7	438.32	692.75	-189.36	428.72	695.02	222.8	530.78	26.044	50.059	319.69	1101.7	284.01	448.52	496.7	193.48	342.19	1592.7	-18.674	577.95	30.493	81.752	402.24	84.091	22.38	407.94	777.46	240.18	308.64	48.782	62.892	246.04	1370.8	164.34	182.7	192.67	-81.572	207.86	1037.1	90.55	304.92	1491.1	50.974	281.93	1083.8	-185.31	248.37	1174.5	51.065	210.17	1040.3	5.8074	219.7	183.32	-0.14601	359.2	1598.7	129.38	133.04	194.83	-17.433
413	2.065	496.51	1674.8	-8.536	497.73	1675	90.714	505.52	1415.8	43.607	574.07	1258.7	32.068	443.07	1006.7	-151.38	491.07	996.61	214.43	394.63	1491.8	219.9	370.45	1321.8	334.13	380.88	1172.6	381.02	415.84	1022.7	392.93	438.08	905.85	321.74	433.77	910.36	403.39	466.06	825.69	369.16	379.22	1480.7	-133.46	344.05	1310.5	-224.27	334.83	1149.5	-281.38	367.47	1014.1	-303.02	435.24	893.78	-255.79	386.03	875.05	-309.26	449.15	808.68	-293.64	450.16	613.16	206.56	486.69	711.55	208.59	499.06	379.05	107.83	466.73	290.67	155.91	425.89	776.19	-186.67	469.55	609.84	-188.37	502.91	707.77	-171.17	455.87	531.86	-187.94	492.33	513.94	-34.228	470.77	396.42	-131.14	363.63	268.07	-91.242	387.56	342.16	-161.57	421.44	331.57	-110.13	304.2	60.682	-81.622	339.61	45.669	-127.41	243.26	85.916	-145.08	479.98	294.77	96.066	462.33	211.59	84.256	431.96	506.54	38.866	446.8	694.13	-188.55	431.59	695.3	222.98	530.75	26.125	50.147	326.66	1102.4	284.48	449.53	496.71	193.63	347.96	1593.6	-18.459	577.89	30.482	81.847	402.27	84.131	22.445	411.66	777.91	240.46	308.58	48.823	62.941	251.56	1371.6	164.41	199.06	188.44	-81.581	213.37	1038.1	90.498	310.58	1492	51.081	285.07	1085.3	-184.68	254.08	1175.3	51.211	215.99	1041.1	5.6797	236.06	179.82	-0.10911	364.88	1599.6	129.61	149.04	189.22	-17.615
414	2.07	502.33	1675.5	-8.2523	503.51	1675.8	90.988	511.08	1416.6	43.831	579.66	1259.5	32.324	449.47	1007.5	-150.64	496.4	998.04	214.56	400.01	1492.6	220.08	376.13	1322.6	334.44	387.35	1173.5	381.62	423.33	1024	393.61	446.5	907.27	322.49	442.07	911.79	404.15	474.91	827.28	370.01	384.92	1481.5	-133.31	348.81	1311.4	-224.03	338.28	1150.5	-280.98	369.72	1014.8	-302.6	436.57	893.87	-255.39	387.08	875.56	-308.79	449.3	808.34	-293.05	452.26	613.24	206.74	489.74	711.25	208.76	499.65	378.85	108.02	467.06	290.53	156.06	433.56	777.35	-186.16	478.74	611.38	-187.37	511.19	709.62	-170.38	465.82	533.26	-186.83	501.97	515.82	-33.144	482.97	398.01	-130.19	378.47	267.37	-90.774	400.96	342.1	-160.88	435.01	332.11	-109.44	324.19	59.303	-81.724	360.06	45.218	-127.36	262.6	83.025	-145.22	480.42	294.61	96.221	462.58	211.46	84.395	432.88	506.67	39.02	455.21	695.44	-187.75	434.48	695.56	223.15	530.73	26.206	50.234	333.63	1102.9	284.95	450.55	496.71	193.77	353.73	1594.4	-18.262	577.83	30.476	81.936	402.3	84.168	22.506	415.39	778.33	240.73	308.52	48.862	62.991	257.08	1372.3	164.46	215.6	184.13	-81.583	218.87	1039.1	90.45	316.24	1492.9	51.178	288.17	1086.7	-184.1	259.79	1176.1	51.319	221.79	1041.9	5.5328	252.59	176.26	-0.065096	370.55	1600.5	129.82	165.26	183.52	-17.792
